<?xml version="1.0" encoding="UTF-8" standalone="no"?>
<svg width="27px" height="17px" viewBox="0 0 27 17" version="1.1" xmlns="http://www.w3.org/2000/svg" xmlns:xlink="http://www.w3.org/1999/xlink">
    <!-- Generator: Sketch 43.2 (39069) - http://www.bohemiancoding.com/sketch -->
    <title>add-area-icon</title>
    <desc>Created with Sketch.</desc>
    <defs></defs>
    <g id="Page-1" stroke="none" stroke-width="1" fill="none" fill-rule="evenodd">
        <g id="Create-Process---Step-2-Alternate-Buttons-Copy" transform="translate(-205.000000, -345.000000)">
            <g id="Group-10" transform="translate(38.000000, 332.000000)">
                <g id="Group-9">
                    <g id="add-area-icon" transform="translate(167.000000, 13.000000)">
                        <path d="M27.0101818,2.295 C27.0101818,2.36406285 26.9854065,2.42382787 26.9358551,2.47429688 L24.932946,4.51429688 C24.8833946,4.56476588 24.8247162,4.59 24.7569091,4.59 C24.6891019,4.59 24.6304235,4.56476588 24.5808722,4.51429688 C24.5313208,4.46382787 24.5065455,4.40406285 24.5065455,4.335 L24.5065455,3.315 L23.6302727,3.315 C23.3746919,3.315 23.1458462,3.32296867 22.9437287,3.33890625 C22.7416112,3.35484383 22.5408007,3.38339823 22.3412912,3.42457031 C22.1417817,3.46574239 21.9683544,3.52218714 21.8210043,3.59390625 C21.6736541,3.66562536 21.5360859,3.75792912 21.4082955,3.87082031 C21.280505,3.9837115 21.1761879,4.11785079 21.0953409,4.27324219 C21.0144939,4.42863359 20.9512516,4.61257706 20.9056122,4.82507813 C20.8599728,5.03757919 20.8371534,5.27796741 20.8371534,5.54625 C20.8371534,5.69234448 20.8436732,5.85570222 20.8567131,6.03632813 C20.8567131,6.0522657 20.859973,6.08347633 20.8664929,6.12996094 C20.8730128,6.17644554 20.8762727,6.21164051 20.8762727,6.23554688 C20.8762727,6.27539082 20.865189,6.30859362 20.8430213,6.33515625 C20.8208536,6.36171888 20.7902104,6.375 20.7510909,6.375 C20.7093634,6.375 20.6728524,6.3524221 20.6415568,6.30726563 C20.623301,6.28335926 20.6063495,6.2541408 20.5907017,6.21960938 C20.5750539,6.18507795 20.5574504,6.1452346 20.5378906,6.10007813 C20.5183309,6.05492165 20.5046392,6.02304697 20.4968153,6.00445313 C20.1656035,5.24741809 20,4.6484397 20,4.2075 C20,3.67890361 20.0691101,3.2366424 20.2073324,2.88070313 C20.6298231,1.81022902 21.7707918,1.275 23.6302727,1.275 L24.5065455,1.275 L24.5065455,0.255 C24.5065455,0.185937155 24.5313208,0.126172127 24.5808722,0.075703125 C24.6304235,0.0252341227 24.6891019,0 24.7569091,0 C24.8247162,0 24.8833946,0.0252341227 24.932946,0.075703125 L26.9358551,2.11570313 C26.9854065,2.16617213 27.0101818,2.22593715 27.0101818,2.295 Z" id="ï¤" fill="#FFFFFF" transform="translate(23.505091, 3.187500) scale(-1, 1) translate(-23.505091, -3.187500) "></path>
                        <path d="M18,14 L18,16 C18,16.2708347 17.9363846,16.5052073 17.8091518,16.703125 C17.681919,16.9010427 17.5312509,17 17.3571429,17 L0.642857143,17 C0.468749129,17 0.318080993,16.9010427 0.190848214,16.703125 C0.0636154353,16.5052073 0,16.2708347 0,16 L0,14 C0,13.7291653 0.0636154353,13.4947927 0.190848214,13.296875 C0.318080993,13.0989573 0.468749129,13 0.642857143,13 L17.3571429,13 C17.5312509,13 17.681919,13.0989573 17.8091518,13.296875 C17.9363846,13.4947927 18,13.7291653 18,14 Z" id="Path" fill="#FFFFFF"></path>
                        <path d="M18,8 L18,10 C18,10.2708347 17.9363846,10.5052073 17.8091518,10.703125 C17.681919,10.9010427 17.5312509,11 17.3571429,11 L0.642857143,11 C0.468749129,11 0.318080993,10.9010427 0.190848214,10.703125 C0.0636154353,10.5052073 0,10.2708347 0,10 L0,8 C0,7.72916531 0.0636154353,7.49479266 0.190848214,7.296875 C0.318080993,7.09895734 0.468749129,7 0.642857143,7 L17.3571429,7 C17.5312509,7 17.681919,7.09895734 17.8091518,7.296875 C17.9363846,7.49479266 18,7.72916531 18,8 Z" id="Path" fill="#FFFFFF"></path>
                        <path d="M17.5,1.25 L17.5,3.75 C17.5,4.01262018 17.4533395,4.22750414 17.3645079,4.40023224 C17.3143156,4.49782835 17.3116704,4.5 17.3571429,4.5 L0.642857143,4.5 C0.688329565,4.5 0.6856844,4.49782835 0.635492115,4.40023224 C0.546660517,4.22750414 0.5,4.01262018 0.5,3.75 L0.5,1.25 C0.5,0.987379824 0.546660517,0.772495864 0.635492115,0.599767756 C0.6856844,0.502171648 0.688329565,0.5 0.642857143,0.5 L17.3571429,0.5 C17.3116704,0.5 17.3143156,0.502171648 17.3645079,0.599767756 C17.4533395,0.772495864 17.5,0.987379824 17.5,1.25 Z" id="Path" stroke="#FFFFFF"></path>
                    </g>
                </g>
            </g>
        </g>
    </g>
</svg>