<?xml version="1.0" encoding="UTF-8" standalone="no"?>
<svg width="24px" height="20px" viewBox="0 0 24 20" version="1.1" xmlns="http://www.w3.org/2000/svg" xmlns:xlink="http://www.w3.org/1999/xlink">
    <!-- Generator: Sketch 43.2 (39069) - http://www.bohemiancoding.com/sketch -->
    <title>add-step-icon</title>
    <desc>Created with Sketch.</desc>
    <defs></defs>
    <g id="Page-1" stroke="none" stroke-width="1" fill="none" fill-rule="evenodd">
        <g id="Create-Process---Step-2-Alternate-Buttons-Copy" transform="translate(-56.000000, -345.000000)">
            <g id="Group-10" transform="translate(38.000000, 332.000000)">
                <g id="Group-9">
                    <g id="add-step-icon" transform="translate(18.000000, 13.000000)">
                        <path d="M24.0101818,15.295 C24.0101818,15.3640628 23.9854065,15.4238279 23.9358551,15.4742969 L21.932946,17.5142969 C21.8833946,17.5647659 21.8247162,17.59 21.7569091,17.59 C21.6891019,17.59 21.6304235,17.5647659 21.5808722,17.5142969 C21.5313208,17.4638279 21.5065455,17.4040628 21.5065455,17.335 L21.5065455,16.315 L20.6302727,16.315 C20.3746919,16.315 20.1458462,16.3229687 19.9437287,16.3389063 C19.7416112,16.3548438 19.5408007,16.3833982 19.3412912,16.4245703 C19.1417817,16.4657424 18.9683544,16.5221871 18.8210043,16.5939063 C18.6736541,16.6656254 18.5360859,16.7579291 18.4082955,16.8708203 C18.280505,16.9837115 18.1761879,17.1178508 18.0953409,17.2732422 C18.0144939,17.4286336 17.9512516,17.6125771 17.9056122,17.8250781 C17.8599728,18.0375792 17.8371534,18.2779674 17.8371534,18.54625 C17.8371534,18.6923445 17.8436732,18.8557022 17.8567131,19.0363281 C17.8567131,19.0522657 17.859973,19.0834763 17.8664929,19.1299609 C17.8730128,19.1764455 17.8762727,19.2116405 17.8762727,19.2355469 C17.8762727,19.2753908 17.865189,19.3085936 17.8430213,19.3351563 C17.8208536,19.3617189 17.7902104,19.375 17.7510909,19.375 C17.7093634,19.375 17.6728524,19.3524221 17.6415568,19.3072656 C17.623301,19.2833593 17.6063495,19.2541408 17.5907017,19.2196094 C17.5750539,19.185078 17.5574504,19.1452346 17.5378906,19.1000781 C17.5183309,19.0549216 17.5046392,19.023047 17.4968153,19.0044531 C17.1656035,18.2474181 17,17.6484397 17,17.2075 C17,16.6789036 17.0691101,16.2366424 17.2073324,15.8807031 C17.6298231,14.810229 18.7707918,14.275 20.6302727,14.275 L21.5065455,14.275 L21.5065455,13.255 C21.5065455,13.1859372 21.5313208,13.1261721 21.5808722,13.0757031 C21.6304235,13.0252341 21.6891019,13 21.7569091,13 C21.8247162,13 21.8833946,13.0252341 21.932946,13.0757031 L23.9358551,15.1157031 C23.9854065,15.1661721 24.0101818,15.2259372 24.0101818,15.295 Z" id="ï¤" fill="#FFFFFF" transform="translate(20.505091, 16.187500) scale(-1, 1) translate(-20.505091, -16.187500) "></path>
                        <path d="M15,14 L15,16 C15,16.2708347 14.9469871,16.5052073 14.8409598,16.703125 C14.7349325,16.9010427 14.6093757,17 14.4642857,17 L0.535714286,17 C0.390624275,17 0.265067494,16.9010427 0.159040179,16.703125 C0.0530128627,16.5052073 0,16.2708347 0,16 L0,14 C0,13.7291653 0.0530128627,13.4947927 0.159040179,13.296875 C0.265067494,13.0989573 0.390624275,13 0.535714286,13 L14.4642857,13 C14.6093757,13 14.7349325,13.0989573 14.8409598,13.296875 C14.9469871,13.4947927 15,13.7291653 15,14 Z" id="Path" fill="#FFFFFF"></path>
                        <path d="M18,8 L18,10 C18,10.2708347 17.9363846,10.5052073 17.8091518,10.703125 C17.681919,10.9010427 17.5312509,11 17.3571429,11 L0.642857143,11 C0.468749129,11 0.318080993,10.9010427 0.190848214,10.703125 C0.0636154353,10.5052073 0,10.2708347 0,10 L0,8 C0,7.72916531 0.0636154353,7.49479266 0.190848214,7.296875 C0.318080993,7.09895734 0.468749129,7 0.642857143,7 L17.3571429,7 C17.5312509,7 17.681919,7.09895734 17.8091518,7.296875 C17.9363846,7.49479266 18,7.72916531 18,8 Z" id="Path" fill="#FFFFFF"></path>
                        <path d="M17.5,1.25 L17.5,3.75 C17.5,4.01262018 17.4533395,4.22750414 17.3645079,4.40023224 C17.3143156,4.49782835 17.3116704,4.5 17.3571429,4.5 L0.642857143,4.5 C0.688329565,4.5 0.6856844,4.49782835 0.635492115,4.40023224 C0.546660517,4.22750414 0.5,4.01262018 0.5,3.75 L0.5,1.25 C0.5,0.987379824 0.546660517,0.772495864 0.635492115,0.599767756 C0.6856844,0.502171648 0.688329565,0.5 0.642857143,0.5 L17.3571429,0.5 C17.3116704,0.5 17.3143156,0.502171648 17.3645079,0.599767756 C17.4533395,0.772495864 17.5,0.987379824 17.5,1.25 Z" id="Path" stroke="#FFFFFF"></path>
                    </g>
                </g>
            </g>
        </g>
    </g>
</svg>