<?xml version="1.0" encoding="UTF-8" standalone="no"?>
<svg width="24px" height="18px" viewBox="0 0 24 18" version="1.1" xmlns="http://www.w3.org/2000/svg" xmlns:xlink="http://www.w3.org/1999/xlink">
    <!-- Generator: Sketch 43.2 (39069) - http://www.bohemiancoding.com/sketch -->
    <title>add-group</title>
    <desc>Created with Sketch.</desc>
    <defs></defs>
    <g id="Page-1" stroke="none" stroke-width="1" fill="none" fill-rule="evenodd">
        <g id="Create-Process---Step-2-Start" transform="translate(-209.000000, -23.000000)" fill="#FFFFFF">
            <g id="Group-5">
                <g id="add-group" transform="translate(209.000000, 23.000000)">
                    <path d="M23.9601818,13.92 C23.9601818,13.9890628 23.9354065,14.0488279 23.8858551,14.0992969 L21.882946,16.1392969 C21.8333946,16.1897659 21.7747162,16.215 21.7069091,16.215 C21.6391019,16.215 21.5804235,16.1897659 21.5308722,16.1392969 C21.4813208,16.0888279 21.4565455,16.0290628 21.4565455,15.96 L21.4565455,14.94 L20.5802727,14.94 C20.3246919,14.94 20.0958462,14.9479687 19.8937287,14.9639062 C19.6916112,14.9798438 19.4908007,15.0083982 19.2912912,15.0495703 C19.0917817,15.0907424 18.9183544,15.1471871 18.7710043,15.2189062 C18.6236541,15.2906254 18.4860859,15.3829291 18.3582955,15.4958203 C18.230505,15.6087115 18.1261879,15.7428508 18.0453409,15.8982422 C17.9644939,16.0536336 17.9012516,16.2375771 17.8556122,16.4500781 C17.8099728,16.6625792 17.7871534,16.9029674 17.7871534,17.17125 C17.7871534,17.3173445 17.7936732,17.4807022 17.8067131,17.6613281 C17.8067131,17.6772657 17.809973,17.7084763 17.8164929,17.7549609 C17.8230128,17.8014455 17.8262727,17.8366405 17.8262727,17.8605469 C17.8262727,17.9003908 17.815189,17.9335936 17.7930213,17.9601562 C17.7708536,17.9867189 17.7402104,18 17.7010909,18 C17.6593634,18 17.6228524,17.9774221 17.5915568,17.9322656 C17.573301,17.9083593 17.5563495,17.8791408 17.5407017,17.8446094 C17.5250539,17.810078 17.5074504,17.7702346 17.4878906,17.7250781 C17.4683309,17.6799216 17.4546392,17.648047 17.4468153,17.6294531 C17.1156035,16.8724181 16.95,16.2734397 16.95,15.8325 C16.95,15.3039036 17.0191101,14.8616424 17.1573324,14.5057031 C17.5798231,13.435229 18.7207918,12.9 20.5802727,12.9 L21.4565455,12.9 L21.4565455,11.88 C21.4565455,11.8109372 21.4813208,11.7511721 21.5308722,11.7007031 C21.5804235,11.6502341 21.6391019,11.625 21.7069091,11.625 C21.7747162,11.625 21.8333946,11.6502341 21.882946,11.7007031 L23.8858551,13.7407031 C23.9354065,13.7911721 23.9601818,13.8509372 23.9601818,13.92 Z" id="ï¤" transform="translate(20.455091, 14.812500) scale(-1, 1) translate(-20.455091, -14.812500) "></path>
                    <path d="M14.85,12.96875 L14.85,14.90625 C14.85,15.1686211 14.7975173,15.3956696 14.6925502,15.5874023 C14.5875832,15.7791351 14.463282,15.875 14.3196429,15.875 L0.530357143,15.875 C0.386718032,15.875 0.262416819,15.7791351 0.157449777,15.5874023 C0.0524827341,15.3956696 0,15.1686211 0,14.90625 L0,12.96875 C0,12.7063789 0.0524827341,12.4793304 0.157449777,12.2875977 C0.262416819,12.0958649 0.386718032,12 0.530357143,12 L14.3196429,12 C14.463282,12 14.5875832,12.0958649 14.6925502,12.2875977 C14.7975173,12.4793304 14.85,12.7063789 14.85,12.96875 Z" id="Path"></path>
                    <path d="M18.9,6.96875 L18.9,8.90625 C18.9,9.1686211 18.8332038,9.39566961 18.6996094,9.58740234 C18.566015,9.77913507 18.4078134,9.875 18.225,9.875 L0.675,9.875 C0.492186586,9.875 0.333985043,9.77913507 0.200390625,9.58740234 C0.066796207,9.39566961 0,9.1686211 0,8.90625 L0,6.96875 C0,6.7063789 0.066796207,6.47933039 0.200390625,6.28759766 C0.333985043,6.09586493 0.492186586,6 0.675,6 L18.225,6 C18.4078134,6 18.566015,6.09586493 18.6996094,6.28759766 C18.8332038,6.47933039 18.9,6.7063789 18.9,6.96875 Z" id="Path"></path>
                    <path d="M18.9,0.96875 L18.9,2.90625 C18.9,3.1686211 18.8332038,3.39566961 18.6996094,3.58740234 C18.566015,3.77913507 18.4078134,3.875 18.225,3.875 L0.675,3.875 C0.492186586,3.875 0.333985043,3.77913507 0.200390625,3.58740234 C0.066796207,3.39566961 0,3.1686211 0,2.90625 L0,0.96875 C0,0.706378896 0.066796207,0.479330386 0.200390625,0.287597656 C0.333985043,0.0958649268 0.492186586,0 0.675,0 L18.225,0 C18.4078134,0 18.566015,0.0958649268 18.6996094,0.287597656 C18.8332038,0.479330386 18.9,0.706378896 18.9,0.96875 Z" id="Path"></path>
                </g>
            </g>
        </g>
    </g>
</svg>