<?xml version="1.0" encoding="UTF-8" standalone="no"?>
<svg width="26px" height="21px" viewBox="0 0 26 21" version="1.1" xmlns="http://www.w3.org/2000/svg" xmlns:xlink="http://www.w3.org/1999/xlink">
    <!-- Generator: Sketch 43.2 (39069) - http://www.bohemiancoding.com/sketch -->
    <title></title>
    <desc>Created with Sketch.</desc>
    <defs></defs>
    <g id="Page-1" stroke="none" stroke-width="1" fill="none" fill-rule="evenodd" stroke-opacity="0.0416383605">
        <g id="Processes" transform="translate(-128.000000, -621.000000)" stroke="#FFFFFF" fill="#FFFFFF">
            <path d="M135.857143,637.113636 L135.857143,639.704545 C135.857143,640.064396 135.732144,640.370264 135.482143,640.622159 C135.232142,640.874054 134.928573,641 134.571429,641 L130.285714,641 C129.92857,641 129.625001,640.874054 129.375,640.622159 C129.124999,640.370264 129,640.064396 129,639.704545 L129,637.113636 C129,636.753786 129.124999,636.447918 129.375,636.196023 C129.625001,635.944128 129.92857,635.818182 130.285714,635.818182 L134.571429,635.818182 C134.928573,635.818182 135.232142,635.944128 135.482143,636.196023 C135.732144,636.447918 135.857143,636.753786 135.857143,637.113636 Z M135.857143,630.204545 L135.857143,632.795455 C135.857143,633.155305 135.732144,633.461173 135.482143,633.713068 C135.232142,633.964963 134.928573,634.090909 134.571429,634.090909 L130.285714,634.090909 C129.92857,634.090909 129.625001,633.964963 129.375,633.713068 C129.124999,633.461173 129,633.155305 129,632.795455 L129,630.204545 C129,629.844695 129.124999,629.538827 129.375,629.286932 C129.625001,629.035037 129.92857,628.909091 130.285714,628.909091 L134.571429,628.909091 C134.928573,628.909091 135.232142,629.035037 135.482143,629.286932 C135.732144,629.538827 135.857143,629.844695 135.857143,630.204545 Z M153,637.113636 L153,639.704545 C153,640.064396 152.875001,640.370264 152.625,640.622159 C152.374999,640.874054 152.07143,641 151.714286,641 L138.857143,641 C138.499998,641 138.19643,640.874054 137.946429,640.622159 C137.696427,640.370264 137.571429,640.064396 137.571429,639.704545 L137.571429,637.113636 C137.571429,636.753786 137.696427,636.447918 137.946429,636.196023 C138.19643,635.944128 138.499998,635.818182 138.857143,635.818182 L151.714286,635.818182 C152.07143,635.818182 152.374999,635.944128 152.625,636.196023 C152.875001,636.447918 153,636.753786 153,637.113636 Z M135.857143,623.295455 L135.857143,625.886364 C135.857143,626.246214 135.732144,626.552082 135.482143,626.803977 C135.232142,627.055872 134.928573,627.181818 134.571429,627.181818 L130.285714,627.181818 C129.92857,627.181818 129.625001,627.055872 129.375,626.803977 C129.124999,626.552082 129,626.246214 129,625.886364 L129,623.295455 C129,622.935604 129.124999,622.629736 129.375,622.377841 C129.625001,622.125946 129.92857,622 130.285714,622 L134.571429,622 C134.928573,622 135.232142,622.125946 135.482143,622.377841 C135.732144,622.629736 135.857143,622.935604 135.857143,623.295455 Z M153,630.204545 L153,632.795455 C153,633.155305 152.875001,633.461173 152.625,633.713068 C152.374999,633.964963 152.07143,634.090909 151.714286,634.090909 L138.857143,634.090909 C138.499998,634.090909 138.19643,633.964963 137.946429,633.713068 C137.696427,633.461173 137.571429,633.155305 137.571429,632.795455 L137.571429,630.204545 C137.571429,629.844695 137.696427,629.538827 137.946429,629.286932 C138.19643,629.035037 138.499998,628.909091 138.857143,628.909091 L151.714286,628.909091 C152.07143,628.909091 152.374999,629.035037 152.625,629.286932 C152.875001,629.538827 153,629.844695 153,630.204545 Z M153,623.295455 L153,625.886364 C153,626.246214 152.875001,626.552082 152.625,626.803977 C152.374999,627.055872 152.07143,627.181818 151.714286,627.181818 L138.857143,627.181818 C138.499998,627.181818 138.19643,627.055872 137.946429,626.803977 C137.696427,626.552082 137.571429,626.246214 137.571429,625.886364 L137.571429,623.295455 C137.571429,622.935604 137.696427,622.629736 137.946429,622.377841 C138.19643,622.125946 138.499998,622 138.857143,622 L151.714286,622 C152.07143,622 152.374999,622.125946 152.625,622.377841 C152.875001,622.629736 153,622.935604 153,623.295455 Z" id=""></path>
        </g>
    </g>
</svg>