<?xml version="1.0" encoding="UTF-8" standalone="no"?>
<svg width="23px" height="24px" viewBox="0 0 23 24" version="1.1" xmlns="http://www.w3.org/2000/svg" xmlns:xlink="http://www.w3.org/1999/xlink">
    <!-- Generator: Sketch 43.2 (39069) - http://www.bohemiancoding.com/sketch -->
    <title>process-tick</title>
    <desc>Created with Sketch.</desc>
    <defs></defs>
    <g id="Page-1" stroke="none" stroke-width="1" fill="none" fill-rule="evenodd">
        <g id="Login" transform="translate(-316.000000, -310.000000)">
            <g id="Group-7" transform="translate(38.000000, 279.000000)">
                <g id="process-tick" transform="translate(278.000000, 31.000000)">
                    <rect id="Rectangle-2" fill="#50B600" x="0" y="0" width="23" height="24" rx="5"></rect>
                    <path d="M17.109375,9.8125 C17.109375,10.0208344 17.0364591,10.1979159 16.890625,10.34375 L10.171875,17.0625 C10.0260409,17.2083341 9.84895938,17.28125 9.640625,17.28125 C9.43229062,17.28125 9.25520906,17.2083341 9.109375,17.0625 L5.21875,13.171875 C5.07291594,13.0260409 5,12.8489594 5,12.640625 C5,12.4322906 5.07291594,12.2552091 5.21875,12.109375 L6.28125,11.046875 C6.42708406,10.9010409 6.60416562,10.828125 6.8125,10.828125 C7.02083438,10.828125 7.19791594,10.9010409 7.34375,11.046875 L9.640625,13.3515625 L14.765625,8.21875 C14.9114591,8.07291594 15.0885406,8 15.296875,8 C15.5052094,8 15.6822909,8.07291594 15.828125,8.21875 L16.890625,9.28125 C17.0364591,9.42708406 17.109375,9.60416562 17.109375,9.8125 Z" id="" fill="#FFFFFF"></path>
                </g>
            </g>
        </g>
    </g>
</svg>