<?xml version="1.0" encoding="UTF-8" standalone="no"?>
<svg width="96px" height="117px" viewBox="0 0 96 117" version="1.1" xmlns="http://www.w3.org/2000/svg" xmlns:xlink="http://www.w3.org/1999/xlink">
    <!-- Generator: Sketch 43.2 (39069) - http://www.bohemiancoding.com/sketch -->
    <title>checklist-king-portrait</title>
    <desc>Created with Sketch.</desc>
    <defs></defs>
    <g id="Page-1" stroke="none" stroke-width="1" fill="none" fill-rule="evenodd">
        <g id="Login-Copy" transform="translate(-140.000000, -148.000000)">
            <g id="checklist-king-portrait" transform="translate(140.000000, 148.000000)">
                <path d="M10.130031,101.006469 L7.05882353,101.006469 L7.05882353,115.990989 L0,115.990989 L0,79.9290695 L7.05882353,79.9290695 L7.05882353,94.5916082 L9.3374613,94.5916082 L16.371517,79.9290695 L25.0154799,79.9290695 L15.1826625,96.3996578 L25.8328173,115.990989 L17.2631579,115.990989 L10.130031,101.006469 Z M35.5417957,115.990989 L28.5325077,115.990989 L28.5325077,79.9290695 L35.5417957,79.9290695 L35.5417957,115.990989 Z M66.625387,115.990989 L59.6160991,115.990989 L48.5944272,92.9321655 L48.4458204,92.9817011 L48.4458204,115.990989 L41.3869969,115.990989 L41.3869969,79.9290695 L48.4458204,79.9290695 L59.4674923,102.963125 L59.6160991,102.91359 L59.6160991,79.9290695 L66.625387,79.9290695 L66.625387,115.990989 Z M96,110.641144 C95.0257949,112.193267 93.5645092,113.559611 91.6160991,114.740215 C89.6676889,115.920819 87.1991893,116.511113 84.2105263,116.511113 C80.3467299,116.511113 77.2466577,115.380061 74.9102167,113.117924 C72.5737757,110.855787 71.4055728,107.636005 71.4055728,103.458481 L71.4055728,92.4615773 C71.4055728,88.3170777 72.5324965,85.1055515 74.7863777,82.8269023 C77.0402589,80.5482532 80.0247492,79.4089457 83.7399381,79.4089457 C87.7358301,79.4089457 90.7327041,80.3872641 92.7306502,82.3439302 C94.7285962,84.3005963 95.7688334,87.1034579 95.8513932,90.7525989 L95.8018576,90.9012057 L89.1888545,90.9012057 C89.1393186,88.8702358 88.6893747,87.3883105 87.8390093,86.4553853 C86.9886438,85.5224601 85.6883472,85.0560045 83.9380805,85.0560045 C82.2208376,85.0560045 80.8751339,85.6628096 79.9009288,86.8764379 C78.9267237,88.0900663 78.4396285,89.9352491 78.4396285,92.4120417 L78.4396285,103.458481 C78.4396285,105.98481 78.9308516,107.85476 79.9133127,109.068388 C80.8957737,110.282017 82.328164,110.888822 84.2105263,110.888822 C85.6140421,110.888822 86.6501515,110.698937 87.3188854,110.319162 C87.9876194,109.939388 88.5366336,109.37799 88.9659443,108.634952 L88.9659443,102.170556 L84.2105263,102.170556 L84.2105263,97.2169952 L96,97.2169952 L96,110.641144 Z" id="KING" fill="#FFFFFF"></path>
                <path d="M9.29986308,72.5454131 L9.33272478,72.6111365 C9.31811951,74.1665984 8.90917791,75.3550849 8.10588772,76.1766317 C7.30259754,76.9981785 6.19626446,77.4089457 4.78685532,77.4089457 C3.31902507,77.4089457 2.15427177,76.8904662 1.29256047,75.8534916 C0.430849183,74.816517 0,73.3377549 0,71.4171611 L0,67.0027385 C0,65.0967499 0.432674815,63.6198135 1.29803743,62.571885 C2.16340004,61.5239564 3.3263277,61 4.78685532,61 C6.21086974,61 7.32085408,61.4016391 8.11684162,62.2049293 C8.91282917,63.0082194 9.31811951,64.2058341 9.33272478,65.7978092 L9.29986308,65.8635326 L8.08397992,65.8635326 C8.04746673,64.6001762 7.75536559,63.6672782 7.20766773,63.0648106 C6.65996988,62.4623429 5.85304047,62.1611136 4.78685532,62.1611136 C3.69145961,62.1611136 2.83706377,62.5737065 2.22364217,63.3989046 C1.61022058,64.2241027 1.30351438,65.4144149 1.30351438,66.9698768 L1.30351438,71.4171611 C1.30351438,73.0018336 1.61022058,74.2067508 2.22364217,75.0319489 C2.83706377,75.857147 3.69145961,76.2697398 4.78685532,76.2697398 C5.85304047,76.2697398 6.65996988,75.9758131 7.20766773,75.3879507 C7.75536559,74.8000883 8.04746673,73.8525853 8.08397992,72.5454131 L9.29986308,72.5454131 Z M22.0063898,77.1789137 L20.7028754,77.1789137 L20.7028754,69.8507531 L13.5390233,69.8507531 L13.5390233,77.1789137 L12.224555,77.1789137 L12.224555,61.2300319 L13.5390233,61.2300319 L13.5390233,68.7115472 L20.7028754,68.7115472 L20.7028754,61.2300319 L22.0063898,61.2300319 L22.0063898,77.1789137 Z M33.1793702,69.4783204 L26.913738,69.4783204 L26.913738,76.0397079 L34.1104518,76.0397079 L34.1104518,77.1789137 L25.5992697,77.1789137 L25.5992697,61.2300319 L34.0447284,61.2300319 L34.0447284,62.3911456 L26.913738,62.3911456 L26.913738,68.3391146 L33.1793702,68.3391146 L33.1793702,69.4783204 Z M45.2724783,72.5454131 L45.30534,72.6111365 C45.2907348,74.1665984 44.8817932,75.3550849 44.078503,76.1766317 C43.2752128,76.9981785 42.1688797,77.4089457 40.7594706,77.4089457 C39.2916403,77.4089457 38.126887,76.8904662 37.2651757,75.8534916 C36.4034644,74.816517 35.9726152,73.3377549 35.9726152,71.4171611 L35.9726152,67.0027385 C35.9726152,65.0967499 36.4052901,63.6198135 37.2706527,62.571885 C38.1360153,61.5239564 39.2989429,61 40.7594706,61 C42.183485,61 43.2934693,61.4016391 44.0894569,62.2049293 C44.8854444,63.0082194 45.2907348,64.2058341 45.30534,65.7978092 L45.2724783,65.8635326 L44.0565952,65.8635326 C44.020082,64.6001762 43.7279808,63.6672782 43.180283,63.0648106 C42.6325851,62.4623429 41.8256557,62.1611136 40.7594706,62.1611136 C39.6640749,62.1611136 38.809679,62.5737065 38.1962574,63.3989046 C37.5828358,64.2241027 37.2761296,65.4144149 37.2761296,66.9698768 L37.2761296,71.4171611 C37.2761296,73.0018336 37.5828358,74.2067508 38.1962574,75.0319489 C38.809679,75.857147 39.6640749,76.2697398 40.7594706,76.2697398 C41.8256557,76.2697398 42.6325851,75.9758131 43.180283,75.3879507 C43.7279808,74.8000883 44.020082,73.8525853 44.0565952,72.5454131 L45.2724783,72.5454131 Z M51.2204473,69.6973984 L49.5116385,69.6973984 L49.5116385,77.1789137 L48.1971702,77.1789137 L48.1971702,61.2300319 L49.5116385,61.2300319 L49.5116385,68.5581926 L51.1766317,68.5581926 L56.2263806,61.2300319 L57.759927,61.2300319 L52.2829758,69.0620721 L58.1542675,77.1789137 L56.522136,77.1789137 L51.2204473,69.6973984 Z M61.6157006,76.0397079 L68.0565952,76.0397079 L68.0565952,77.1789137 L60.2902784,77.1789137 L60.2902784,61.2300319 L61.6157006,61.2300319 L61.6157006,76.0397079 Z M71.8795071,77.1789137 L70.5540849,77.1789137 L70.5540849,61.2300319 L71.8795071,61.2300319 L71.8795071,77.1789137 Z M83.0963031,73.2683706 C83.0963031,72.3993567 82.8425402,71.692837 82.3350068,71.1487905 C81.8274735,70.604744 80.9347394,70.1246027 79.6567777,69.7083524 C78.2035528,69.2628914 77.1026966,68.6878173 76.3541762,67.9831127 C75.6056558,67.2784082 75.2314012,66.3345563 75.2314012,65.151529 C75.2314012,63.9319884 75.6494709,62.9351933 76.485623,62.1611136 C77.3217751,61.387034 78.4007237,61 79.7225011,61 C81.1100024,61 82.2254636,61.456408 83.0689183,62.3692378 C83.912373,63.2820675 84.3231402,64.3957031 84.3012323,65.710178 L84.2683706,65.7759014 L83.0305796,65.7759014 C83.0305796,64.7170189 82.7366529,63.8498436 82.1487905,63.1743496 C81.5609281,62.4988556 80.7521731,62.1611136 79.7225011,62.1611136 C78.7220397,62.1611136 77.9443204,62.442261 77.3893199,63.0045641 C76.8343195,63.5668673 76.5568234,64.2715613 76.5568234,65.1186673 C76.5568234,65.9073522 76.8251913,66.5700566 77.3619352,67.1068005 C77.8986791,67.6435444 78.8096695,68.1127319 80.0949338,68.514377 C81.5116456,68.9525353 82.5869429,69.5458657 83.3208581,70.2943861 C84.0547732,71.0429065 84.4217252,72.0269222 84.4217252,73.2464628 C84.4217252,74.5244245 83.9890504,75.5376503 83.1236878,76.2861707 C82.2583252,77.0346911 81.1465152,77.4089457 79.7882246,77.4089457 C78.4518418,77.4089457 77.2889141,77.0073066 76.2994067,76.2040164 C75.3098992,75.4007262 74.8334092,74.2359729 74.8699224,72.7097216 L74.8918302,72.6439982 L76.1186673,72.6439982 C76.1186673,73.8854466 76.4783168,74.8000883 77.1976267,75.3879507 C77.9169365,75.9758131 78.7804605,76.2697398 79.7882246,76.2697398 C80.7813833,76.2697398 81.5810102,75.995895 82.1871292,75.4481972 C82.7932481,74.9004993 83.0963031,74.1738977 83.0963031,73.2683706 Z M96,62.3911456 L91.5417618,62.3911456 L91.5417618,77.1789137 L90.2272935,77.1789137 L90.2272935,62.3911456 L85.7800091,62.3911456 L85.7800091,61.2300319 L96,61.2300319 L96,62.3911456 Z" id="CHECKLIST" fill="#FFFFFF"></path>
                <g id="process-kingdom-icon" transform="translate(20.000000, 0.000000)" stroke="#FFFFFF">
                    <polygon id="Path-2" points="0 0 14.373032 20.0973248 28.3613539 0 42.6561286 20.0973248 56.7227077 0 56.7227077 48.7191352 0 48.7191352"></polygon>
                    <polyline id="Path-2" points="0 12.5494871 14.373032 32.6468119 28.3613539 12.5494871 42.6561286 32.6468119 56.7227077 12.5494871"></polyline>
                </g>
            </g>
        </g>
    </g>
</svg>