<?xml version="1.0" encoding="UTF-8" standalone="no"?>
<svg width="22px" height="20px" viewBox="0 0 22 20" version="1.1" xmlns="http://www.w3.org/2000/svg" xmlns:xlink="http://www.w3.org/1999/xlink">
    <!-- Generator: Sketch 43.2 (39069) - http://www.bohemiancoding.com/sketch -->
    <title> copy</title>
    <desc>Created with Sketch.</desc>
    <defs></defs>
    <g id="Page-1" stroke="none" stroke-width="1" fill="none" fill-rule="evenodd">
        <g id="Processes" transform="translate(-225.000000, -647.000000)" stroke="#FFFFFF">
            <path d="M232.177083,657.5 C231.052078,657.535342 230.131948,657.987719 229.416667,658.857143 L228.020833,658.857143 C227.451386,658.857143 226.972224,658.714008 226.583333,658.427734 C226.194443,658.141461 226,657.722659 226,657.171317 C226,654.676141 226.430551,653.428571 227.291667,653.428571 C227.333334,653.428571 227.484374,653.502789 227.744792,653.651228 C228.00521,653.799666 228.343748,653.949869 228.760417,654.101842 C229.177085,654.253814 229.590276,654.329799 230,654.329799 C230.46528,654.329799 230.927081,654.248513 231.385417,654.085938 C231.350694,654.347472 231.333333,654.580728 231.333333,654.785714 C231.333333,655.768234 231.614581,656.672987 232.177083,657.5 Z M243.333333,664.253906 C243.333333,665.102125 243.079864,665.771854 242.572917,666.263114 C242.06597,666.754374 241.392365,667 240.552083,667 L231.447917,667 C230.607635,667 229.93403,666.754374 229.427083,666.263114 C228.920136,665.771854 228.666667,665.102125 228.666667,664.253906 C228.666667,663.879276 228.678819,663.513488 228.703125,663.156529 C228.727431,662.79957 228.776041,662.414344 228.848958,662.000837 C228.921875,661.587331 229.013888,661.203871 229.125,660.850446 C229.236112,660.497022 229.385416,660.152438 229.572917,659.816685 C229.760418,659.480932 229.975693,659.194663 230.21875,658.957868 C230.461807,658.721074 230.758679,658.531995 231.109375,658.390625 C231.460071,658.249255 231.84722,658.178571 232.270833,658.178571 C232.340278,658.178571 232.489582,658.254557 232.71875,658.406529 C232.947918,658.558502 233.201387,658.728143 233.479167,658.915458 C233.756946,659.102773 234.12847,659.272414 234.59375,659.424386 C235.05903,659.576359 235.527775,659.652344 236,659.652344 C236.472225,659.652344 236.94097,659.576359 237.40625,659.424386 C237.87153,659.272414 238.243054,659.102773 238.520833,658.915458 C238.798613,658.728143 239.052082,658.558502 239.28125,658.406529 C239.510418,658.254557 239.659722,658.178571 239.729167,658.178571 C240.15278,658.178571 240.539929,658.249255 240.890625,658.390625 C241.241321,658.531995 241.538193,658.721074 241.78125,658.957868 C242.024307,659.194663 242.239582,659.480932 242.427083,659.816685 C242.614584,660.152438 242.763888,660.497022 242.875,660.850446 C242.986112,661.203871 243.078125,661.587331 243.151042,662.000837 C243.223959,662.414344 243.272569,662.79957 243.296875,663.156529 C243.321181,663.513488 243.333333,663.879276 243.333333,664.253906 Z M232.666667,650.714286 C232.666667,651.463545 232.406253,652.103234 231.885417,652.633371 C231.364581,653.163507 230.736115,653.428571 230,653.428571 C229.263885,653.428571 228.635419,653.163507 228.114583,652.633371 C227.593747,652.103234 227.333333,651.463545 227.333333,650.714286 C227.333333,649.965026 227.593747,649.325337 228.114583,648.795201 C228.635419,648.265064 229.263885,648 230,648 C230.736115,648 231.364581,648.265064 231.885417,648.795201 C232.406253,649.325337 232.666667,649.965026 232.666667,650.714286 Z M240,654.785714 C240,655.909604 239.609379,656.869137 238.828125,657.664342 C238.046871,658.459546 237.104172,658.857143 236,658.857143 C234.895828,658.857143 233.953129,658.459546 233.171875,657.664342 C232.390621,656.869137 232,655.909604 232,654.785714 C232,653.661825 232.390621,652.702292 233.171875,651.907087 C233.953129,651.111882 234.895828,650.714286 236,650.714286 C237.104172,650.714286 238.046871,651.111882 238.828125,651.907087 C239.609379,652.702292 240,653.661825 240,654.785714 Z M246,657.171317 C246,657.722659 245.805557,658.141461 245.416667,658.427734 C245.027776,658.714008 244.548614,658.857143 243.979167,658.857143 L242.583333,658.857143 C241.868052,657.987719 240.947922,657.535342 239.822917,657.5 C240.385419,656.672987 240.666667,655.768234 240.666667,654.785714 C240.666667,654.580728 240.649306,654.347472 240.614583,654.085938 C241.072919,654.248513 241.53472,654.329799 242,654.329799 C242.409724,654.329799 242.822915,654.253814 243.239583,654.101842 C243.656252,653.949869 243.99479,653.799666 244.255208,653.651228 C244.515626,653.502789 244.666666,653.428571 244.708333,653.428571 C245.569449,653.428571 246,654.676141 246,657.171317 Z M244.666667,650.714286 C244.666667,651.463545 244.406253,652.103234 243.885417,652.633371 C243.364581,653.163507 242.736115,653.428571 242,653.428571 C241.263885,653.428571 240.635419,653.163507 240.114583,652.633371 C239.593747,652.103234 239.333333,651.463545 239.333333,650.714286 C239.333333,649.965026 239.593747,649.325337 240.114583,648.795201 C240.635419,648.265064 241.263885,648 242,648 C242.736115,648 243.364581,648.265064 243.885417,648.795201 C244.406253,649.325337 244.666667,649.965026 244.666667,650.714286 Z" id="-copy"></path>
        </g>
    </g>
</svg>