<?xml version="1.0" encoding="UTF-8" standalone="no"?>
<svg width="22px" height="21px" viewBox="0 0 22 21" version="1.1" xmlns="http://www.w3.org/2000/svg" xmlns:xlink="http://www.w3.org/1999/xlink">
    <!-- Generator: Sketch 43.2 (39069) - http://www.bohemiancoding.com/sketch -->
    <title></title>
    <desc>Created with Sketch.</desc>
    <defs></defs>
    <g id="Page-1" stroke="none" stroke-width="1" fill="none" fill-rule="evenodd" stroke-opacity="0.0527060688">
        <g id="Processes" transform="translate(-225.000000, -621.000000)" stroke="#FFFFFF" fill="#FFFFFF">
            <path d="M232.177083,631.501334 C231.052078,631.536681 230.131948,631.989121 229.416667,632.858667 L228.020833,632.858667 C227.451386,632.858667 226.972224,632.715512 226.583333,632.429198 C226.194443,632.142884 226,631.724024 226,631.172604 C226,628.677078 226.430551,627.429333 227.291667,627.429333 C227.333334,627.429333 227.484374,627.503562 227.744792,627.652021 C228.00521,627.80048 228.343748,627.950704 228.760417,628.102698 C229.177085,628.254692 229.590276,628.330688 230,628.330688 C230.46528,628.330688 230.927081,628.24939 231.385417,628.086792 C231.350694,628.348363 231.333333,628.581652 231.333333,628.786667 C231.333333,629.769325 231.614581,630.674204 232.177083,631.501334 Z M243.333333,638.256188 C243.333333,639.104526 243.079864,639.774349 242.572917,640.265678 C242.06597,640.757006 241.392365,641.002667 240.552083,641.002667 L231.447917,641.002667 C230.607635,641.002667 229.93403,640.757006 229.427083,640.265678 C228.920136,639.774349 228.666667,639.104526 228.666667,638.256188 C228.666667,637.881506 228.678819,637.515665 228.703125,637.158657 C228.727431,636.801648 228.776041,636.416367 228.848958,636.002803 C228.921875,635.589238 229.013888,635.205724 229.125,634.85225 C229.236112,634.498776 229.385416,634.154144 229.572917,633.818344 C229.760418,633.482544 229.975693,633.196234 230.21875,632.959407 C230.461807,632.722579 230.758679,632.533473 231.109375,632.392084 C231.460071,632.250694 231.84722,632.18 232.270833,632.18 C232.340278,632.18 232.489582,632.255996 232.71875,632.40799 C232.947918,632.559984 233.201387,632.729649 233.479167,632.91699 C233.756946,633.104331 234.12847,633.273996 234.59375,633.42599 C235.05903,633.577984 235.527775,633.65398 236,633.65398 C236.472225,633.65398 236.94097,633.577984 237.40625,633.42599 C237.87153,633.273996 238.243054,633.104331 238.520833,632.91699 C238.798613,632.729649 239.052082,632.559984 239.28125,632.40799 C239.510418,632.255996 239.659722,632.18 239.729167,632.18 C240.15278,632.18 240.539929,632.250694 240.890625,632.392084 C241.241321,632.533473 241.538193,632.722579 241.78125,632.959407 C242.024307,633.196234 242.239582,633.482544 242.427083,633.818344 C242.614584,634.154144 242.763888,634.498776 242.875,634.85225 C242.986112,635.205724 243.078125,635.589238 243.151042,636.002803 C243.223959,636.416367 243.272569,636.801648 243.296875,637.158657 C243.321181,637.515665 243.333333,637.881506 243.333333,638.256188 Z M232.666667,624.714667 C232.666667,625.464032 232.406253,626.10381 231.885417,626.634021 C231.364581,627.164232 230.736115,627.429333 230,627.429333 C229.263885,627.429333 228.635419,627.164232 228.114583,626.634021 C227.593747,626.10381 227.333333,625.464032 227.333333,624.714667 C227.333333,623.965302 227.593747,623.325524 228.114583,622.795313 C228.635419,622.265102 229.263885,622 230,622 C230.736115,622 231.364581,622.265102 231.885417,622.795313 C232.406253,623.325524 232.666667,623.965302 232.666667,624.714667 Z M240,628.786667 C240,629.910714 239.609379,630.870382 238.828125,631.665698 C238.046871,632.461015 237.104172,632.858667 236,632.858667 C234.895828,632.858667 233.953129,632.461015 233.171875,631.665698 C232.390621,630.870382 232,629.910714 232,628.786667 C232,627.66262 232.390621,626.702952 233.171875,625.907636 C233.953129,625.112319 234.895828,624.714667 236,624.714667 C237.104172,624.714667 238.046871,625.112319 238.828125,625.907636 C239.609379,626.702952 240,627.66262 240,628.786667 Z M246,631.172604 C246,631.724024 245.805557,632.142884 245.416667,632.429198 C245.027776,632.715512 244.548614,632.858667 243.979167,632.858667 L242.583333,632.858667 C241.868052,631.989121 240.947922,631.536681 239.822917,631.501334 C240.385419,630.674204 240.666667,629.769325 240.666667,628.786667 C240.666667,628.581652 240.649306,628.348363 240.614583,628.086792 C241.072919,628.24939 241.53472,628.330688 242,628.330688 C242.409724,628.330688 242.822915,628.254692 243.239583,628.102698 C243.656252,627.950704 243.99479,627.80048 244.255208,627.652021 C244.515626,627.503562 244.666666,627.429333 244.708333,627.429333 C245.569449,627.429333 246,628.677078 246,631.172604 Z M244.666667,624.714667 C244.666667,625.464032 244.406253,626.10381 243.885417,626.634021 C243.364581,627.164232 242.736115,627.429333 242,627.429333 C241.263885,627.429333 240.635419,627.164232 240.114583,626.634021 C239.593747,626.10381 239.333333,625.464032 239.333333,624.714667 C239.333333,623.965302 239.593747,623.325524 240.114583,622.795313 C240.635419,622.265102 241.263885,622 242,622 C242.736115,622 243.364581,622.265102 243.885417,622.795313 C244.406253,623.325524 244.666667,623.965302 244.666667,624.714667 Z" id=""></path>
        </g>
    </g>
</svg>