<?xml version="1.0" encoding="UTF-8" standalone="no"?>
<svg width="16px" height="17px" viewBox="0 0 16 17" version="1.1" xmlns="http://www.w3.org/2000/svg" xmlns:xlink="http://www.w3.org/1999/xlink">
    <!-- Generator: Sketch 43.2 (39069) - http://www.bohemiancoding.com/sketch -->
    <title>delete</title>
    <desc>Created with Sketch.</desc>
    <defs></defs>
    <g id="Page-1" stroke="none" stroke-width="1" fill="none" fill-rule="evenodd">
        <g id="Process-Single" transform="translate(-173.000000, -21.000000)" fill="#FFFFFF">
            <g id="Group-9">
                <g id="Group-7">
                    <path d="M178.818182,27.7291667 L178.818182,34.1041667 C178.818182,34.2074658 178.784091,34.2923174 178.715909,34.358724 C178.647727,34.4251305 178.560607,34.4583333 178.454545,34.4583333 L177.727273,34.4583333 C177.621212,34.4583333 177.534091,34.4251305 177.465909,34.358724 C177.397727,34.2923174 177.363636,34.2074658 177.363636,34.1041667 L177.363636,27.7291667 C177.363636,27.6258675 177.397727,27.541016 177.465909,27.4746094 C177.534091,27.4082028 177.621212,27.375 177.727273,27.375 L178.454545,27.375 C178.560607,27.375 178.647727,27.4082028 178.715909,27.4746094 C178.784091,27.541016 178.818182,27.6258675 178.818182,27.7291667 Z M181.727273,27.7291667 L181.727273,34.1041667 C181.727273,34.2074658 181.693182,34.2923174 181.625,34.358724 C181.556818,34.4251305 181.469697,34.4583333 181.363636,34.4583333 L180.636364,34.4583333 C180.530303,34.4583333 180.443182,34.4251305 180.375,34.358724 C180.306818,34.2923174 180.272727,34.2074658 180.272727,34.1041667 L180.272727,27.7291667 C180.272727,27.6258675 180.306818,27.541016 180.375,27.4746094 C180.443182,27.4082028 180.530303,27.375 180.636364,27.375 L181.363636,27.375 C181.469697,27.375 181.556818,27.4082028 181.625,27.4746094 C181.693182,27.541016 181.727273,27.6258675 181.727273,27.7291667 Z M184.636364,27.7291667 L184.636364,34.1041667 C184.636364,34.2074658 184.602273,34.2923174 184.534091,34.358724 C184.465909,34.4251305 184.378788,34.4583333 184.272727,34.4583333 L183.545455,34.4583333 C183.439393,34.4583333 183.352273,34.4251305 183.284091,34.358724 C183.215909,34.2923174 183.181818,34.2074658 183.181818,34.1041667 L183.181818,27.7291667 C183.181818,27.6258675 183.215909,27.541016 183.284091,27.4746094 C183.352273,27.4082028 183.439393,27.375 183.545455,27.375 L184.272727,27.375 C184.378788,27.375 184.465909,27.4082028 184.534091,27.4746094 C184.602273,27.541016 184.636364,27.6258675 184.636364,27.7291667 Z M186.090909,35.7421875 L186.090909,25.25 L175.909091,25.25 L175.909091,35.7421875 C175.909091,35.9045147 175.935606,36.0539273 175.988636,36.1904297 C176.041667,36.3269321 176.096591,36.4265405 176.153409,36.4892578 C176.210228,36.5519751 176.25,36.5833333 176.272727,36.5833333 L185.727273,36.5833333 C185.75,36.5833333 185.789772,36.5519751 185.846591,36.4892578 C185.903409,36.4265405 185.958333,36.3269321 186.011364,36.1904297 C186.064394,36.0539273 186.090909,35.9045147 186.090909,35.7421875 Z M178.454545,23.8333333 L183.545455,23.8333333 L183,22.5384115 C182.946969,22.4720049 182.882576,22.4314237 182.806818,22.4166667 L179.204545,22.4166667 C179.128787,22.4314237 179.064394,22.4720049 179.011364,22.5384115 L178.454545,23.8333333 Z M189,24.1875 L189,24.8958333 C189,24.9991325 188.965909,25.083984 188.897727,25.1503906 C188.829545,25.2167972 188.742425,25.25 188.636364,25.25 L187.545455,25.25 L187.545455,35.7421875 C187.545455,36.3546038 187.367426,36.8840038 187.011364,37.3304036 C186.655301,37.7768034 186.227275,38 185.727273,38 L176.272727,38 C175.772725,38 175.344699,37.7841818 174.988636,37.3525391 C174.632574,36.9208963 174.454545,36.3988746 174.454545,35.7864583 L174.454545,25.25 L173.363636,25.25 C173.257575,25.25 173.170455,25.2167972 173.102273,25.1503906 C173.034091,25.083984 173,24.9991325 173,24.8958333 L173,24.1875 C173,24.0842009 173.034091,23.9993493 173.102273,23.9329427 C173.170455,23.8665361 173.257575,23.8333333 173.363636,23.8333333 L176.875,23.8333333 L177.670455,21.985026 C177.784091,21.7120212 177.988635,21.4796017 178.284091,21.2877604 C178.579547,21.0959192 178.878786,21 179.181818,21 L182.818182,21 C183.121214,21 183.420453,21.0959192 183.715909,21.2877604 C184.011365,21.4796017 184.215909,21.7120212 184.329545,21.985026 L185.125,23.8333333 L188.636364,23.8333333 C188.742425,23.8333333 188.829545,23.8665361 188.897727,23.9329427 C188.965909,23.9993493 189,24.0842009 189,24.1875 Z" id="delete"></path>
                </g>
            </g>
        </g>
    </g>
</svg>