<?xml version="1.0" encoding="UTF-8" standalone="no"?>
<svg width="17px" height="17px" viewBox="0 0 17 17" version="1.1" xmlns="http://www.w3.org/2000/svg" xmlns:xlink="http://www.w3.org/1999/xlink">
    <!-- Generator: Sketch 43.2 (39069) - http://www.bohemiancoding.com/sketch -->
    <title>edit</title>
    <desc>Created with Sketch.</desc>
    <defs></defs>
    <g id="Page-1" stroke="none" stroke-width="1" fill="none" fill-rule="evenodd">
        <g id="Process-Single" transform="translate(-232.000000, -22.000000)" fill="#FFFFFF">
            <g id="Group-9">
                <g id="Group-7">
                    <path d="M236.073267,37.5636964 L237.094389,36.5425743 L234.457426,33.9056106 L233.436304,34.9267327 L233.436304,36.1273927 L234.872607,36.1273927 L234.872607,37.5636964 L236.073267,37.5636964 Z M241.941914,27.150495 C241.941914,26.9859178 241.859627,26.9036304 241.69505,26.9036304 C241.620242,26.9036304 241.556656,26.9298127 241.50429,26.9821782 L235.422442,33.0640264 C235.370077,33.1163919 235.343894,33.1799776 235.343894,33.2547855 C235.343894,33.4193628 235.426182,33.5016502 235.590759,33.5016502 C235.665567,33.5016502 235.729153,33.4754678 235.781518,33.4231023 L241.863366,27.3412541 C241.915732,27.2888886 241.941914,27.2253029 241.941914,27.150495 Z M241.335974,24.9960396 L246.00396,29.6640264 L236.667987,39 L232,39 L232,34.3320132 L241.335974,24.9960396 Z M249,26.0732673 C249,26.469749 248.861608,26.8063793 248.584818,27.0831683 L246.722112,28.9458746 L242.054125,24.2778878 L243.916832,22.4264026 C244.18614,22.1421328 244.52277,22 244.926733,22 C245.323214,22 245.663585,22.1421328 245.947855,22.4264026 L248.584818,25.0521452 C248.861608,25.3438958 249,25.6842665 249,26.0732673 Z" id="edit"></path>
                </g>
            </g>
        </g>
    </g>
</svg>