<?xml version="1.0" encoding="UTF-8" standalone="no"?>
<svg width="21px" height="21px" viewBox="0 0 21 21" version="1.1" xmlns="http://www.w3.org/2000/svg" xmlns:xlink="http://www.w3.org/1999/xlink">
    <!-- Generator: Sketch 43.2 (39069) - http://www.bohemiancoding.com/sketch -->
    <title></title>
    <desc>Created with Sketch.</desc>
    <defs></defs>
    <g id="Page-1" stroke="none" stroke-width="1" fill="none" fill-rule="evenodd" stroke-opacity="0.0533288043">
        <g id="Processes" transform="translate(-37.000000, -621.000000)" stroke="#FFFFFF" fill="#FFFFFF">
            <path d="M49.0833333,627.145833 L49.0833333,632.6875 C49.0833333,632.802952 49.0462243,632.897786 48.9720052,632.972005 C48.8977861,633.046224 48.802952,633.083333 48.6875,633.083333 L44.7291667,633.083333 C44.6137147,633.083333 44.5188806,633.046224 44.4446615,632.972005 C44.3704423,632.897786 44.3333333,632.802952 44.3333333,632.6875 L44.3333333,631.895833 C44.3333333,631.780381 44.3704423,631.685547 44.4446615,631.611328 C44.5188806,631.537109 44.6137147,631.5 44.7291667,631.5 L47.5,631.5 L47.5,627.145833 C47.5,627.030381 47.537109,626.935547 47.6113281,626.861328 C47.6855472,626.787109 47.7803814,626.75 47.8958333,626.75 L48.6875,626.75 C48.802952,626.75 48.8977861,626.787109 48.9720052,626.861328 C49.0462243,626.935547 49.0833333,627.030381 49.0833333,627.145833 Z M54.2291667,631.5 C54.2291667,630.279508 53.9281714,629.153868 53.3261719,628.123047 C52.7241723,627.092226 51.9077743,626.275828 50.8769531,625.673828 C49.846132,625.071829 48.7204922,624.770833 47.5,624.770833 C46.2795078,624.770833 45.153868,625.071829 44.1230469,625.673828 C43.0922257,626.275828 42.2758277,627.092226 41.6738281,628.123047 C41.0718286,629.153868 40.7708333,630.279508 40.7708333,631.5 C40.7708333,632.720492 41.0718286,633.846132 41.6738281,634.876953 C42.2758277,635.907774 43.0922257,636.724172 44.1230469,637.326172 C45.153868,637.928171 46.2795078,638.229167 47.5,638.229167 C48.7204922,638.229167 49.846132,637.928171 50.8769531,637.326172 C51.9077743,636.724172 52.7241723,635.907774 53.3261719,634.876953 C53.9281714,633.846132 54.2291667,632.720492 54.2291667,631.5 Z M57,631.5 C57,633.223533 56.5753081,634.813035 55.7259115,636.268555 C54.8765149,637.724074 53.7240741,638.876515 52.2685547,639.725911 C50.8130353,640.575308 49.2235329,641 47.5,641 C45.7764671,641 44.1869647,640.575308 42.7314453,639.725911 C41.2759259,638.876515 40.1234851,637.724074 39.2740885,636.268555 C38.4246919,634.813035 38,633.223533 38,631.5 C38,629.776467 38.4246919,628.186965 39.2740885,626.731445 C40.1234851,625.275926 41.2759259,624.123485 42.7314453,623.274089 C44.1869647,622.424692 45.7764671,622 47.5,622 C49.2235329,622 50.8130353,622.424692 52.2685547,623.274089 C53.7240741,624.123485 54.8765149,625.275926 55.7259115,626.731445 C56.5753081,628.186965 57,629.776467 57,631.5 Z" id=""></path>
        </g>
    </g>
</svg>