<?xml version="1.0" encoding="UTF-8" standalone="no"?>
<svg width="21px" height="20px" viewBox="0 0 21 20" version="1.1" xmlns="http://www.w3.org/2000/svg" xmlns:xlink="http://www.w3.org/1999/xlink">
    <!-- Generator: Sketch 43.2 (39069) - http://www.bohemiancoding.com/sketch -->
    <title> copy</title>
    <desc>Created with Sketch.</desc>
    <defs></defs>
    <g id="Page-1" stroke="none" stroke-width="1" fill="none" fill-rule="evenodd">
        <g id="Processes" transform="translate(-36.000000, -647.000000)" stroke="#FFFFFF">
            <path d="M48.0833333,653.145833 L48.0833333,658.6875 C48.0833333,658.802952 48.0462243,658.897786 47.9720052,658.972005 C47.8977861,659.046224 47.802952,659.083333 47.6875,659.083333 L43.7291667,659.083333 C43.6137147,659.083333 43.5188806,659.046224 43.4446615,658.972005 C43.3704423,658.897786 43.3333333,658.802952 43.3333333,658.6875 L43.3333333,657.895833 C43.3333333,657.780381 43.3704423,657.685547 43.4446615,657.611328 C43.5188806,657.537109 43.6137147,657.5 43.7291667,657.5 L46.5,657.5 L46.5,653.145833 C46.5,653.030381 46.537109,652.935547 46.6113281,652.861328 C46.6855472,652.787109 46.7803814,652.75 46.8958333,652.75 L47.6875,652.75 C47.802952,652.75 47.8977861,652.787109 47.9720052,652.861328 C48.0462243,652.935547 48.0833333,653.030381 48.0833333,653.145833 Z M53.2291667,657.5 C53.2291667,656.279508 52.9281714,655.153868 52.3261719,654.123047 C51.7241723,653.092226 50.9077743,652.275828 49.8769531,651.673828 C48.846132,651.071829 47.7204922,650.770833 46.5,650.770833 C45.2795078,650.770833 44.153868,651.071829 43.1230469,651.673828 C42.0922257,652.275828 41.2758277,653.092226 40.6738281,654.123047 C40.0718286,655.153868 39.7708333,656.279508 39.7708333,657.5 C39.7708333,658.720492 40.0718286,659.846132 40.6738281,660.876953 C41.2758277,661.907774 42.0922257,662.724172 43.1230469,663.326172 C44.153868,663.928171 45.2795078,664.229167 46.5,664.229167 C47.7204922,664.229167 48.846132,663.928171 49.8769531,663.326172 C50.9077743,662.724172 51.7241723,661.907774 52.3261719,660.876953 C52.9281714,659.846132 53.2291667,658.720492 53.2291667,657.5 Z M56,657.5 C56,659.223533 55.5753081,660.813035 54.7259115,662.268555 C53.8765149,663.724074 52.7240741,664.876515 51.2685547,665.725911 C49.8130353,666.575308 48.2235329,667 46.5,667 C44.7764671,667 43.1869647,666.575308 41.7314453,665.725911 C40.2759259,664.876515 39.1234851,663.724074 38.2740885,662.268555 C37.4246919,660.813035 37,659.223533 37,657.5 C37,655.776467 37.4246919,654.186965 38.2740885,652.731445 C39.1234851,651.275926 40.2759259,650.123485 41.7314453,649.274089 C43.1869647,648.424692 44.7764671,648 46.5,648 C48.2235329,648 49.8130353,648.424692 51.2685547,649.274089 C52.7240741,650.123485 53.8765149,651.275926 54.7259115,652.731445 C55.5753081,654.186965 56,655.776467 56,657.5 Z" id="-copy"></path>
        </g>
    </g>
</svg>