<?xml version="1.0" encoding="UTF-8" standalone="no"?>
<svg width="8px" height="13px" viewBox="0 0 8 13" version="1.1" xmlns="http://www.w3.org/2000/svg" xmlns:xlink="http://www.w3.org/1999/xlink">
    <!-- Generator: Sketch 43.2 (39069) - http://www.bohemiancoding.com/sketch -->
    <title>link-arrow</title>
    <desc>Created with Sketch.</desc>
    <defs></defs>
    <g id="Page-1" stroke="none" stroke-width="1" fill="none" fill-rule="evenodd">
        <g id="Processes" transform="translate(-323.000000, -259.000000)" fill="#FFFFFF">
            <path d="M330.671875,265.085938 C330.671875,265.356772 330.575522,265.593749 330.382812,265.796875 L325.289062,270.882812 C325.096353,271.075522 324.861981,271.171875 324.585938,271.171875 C324.309894,271.171875 324.075522,271.075522 323.882812,270.882812 L323.289062,270.296875 C323.096353,270.093749 323,269.856772 323,269.585938 C323,269.309894 323.096353,269.075522 323.289062,268.882812 L327.085938,265.085938 L323.289062,261.296875 C323.096353,261.093749 323,260.856772 323,260.585938 C323,260.309894 323.096353,260.075522 323.289062,259.882812 L323.882812,259.296875 C324.070313,259.098957 324.304686,259 324.585938,259 C324.867189,259 325.101562,259.098957 325.289062,259.296875 L330.382812,264.382812 C330.575522,264.575522 330.671875,264.809894 330.671875,265.085938 Z" id="link-arrow"></path>
        </g>
    </g>
</svg>