<?xml version="1.0" encoding="UTF-8" standalone="no"?>
<svg width="21px" height="21px" viewBox="0 0 21 21" version="1.1" xmlns="http://www.w3.org/2000/svg" xmlns:xlink="http://www.w3.org/1999/xlink">
    <!-- Generator: Sketch 43.2 (39069) - http://www.bohemiancoding.com/sketch -->
    <title></title>
    <desc>Created with Sketch.</desc>
    <defs></defs>
    <g id="Page-1" stroke="none" stroke-width="1" fill="none" fill-rule="evenodd" stroke-opacity="0.0539232337">
        <g id="Processes" transform="translate(-318.000000, -621.000000)" stroke="#FFFFFF" fill="#FFFFFF">
            <path d="M331.666667,631.5 C331.666667,630.625864 331.357425,629.87956 330.738932,629.261068 C330.12044,628.642575 329.374136,628.333333 328.5,628.333333 C327.625864,628.333333 326.87956,628.642575 326.261068,629.261068 C325.642575,629.87956 325.333333,630.625864 325.333333,631.5 C325.333333,632.374136 325.642575,633.12044 326.261068,633.738932 C326.87956,634.357425 327.625864,634.666667 328.5,634.666667 C329.374136,634.666667 330.12044,634.357425 330.738932,633.738932 C331.357425,633.12044 331.666667,632.374136 331.666667,631.5 Z M338,630.151693 L338,632.897786 C338,632.996745 337.967014,633.091579 337.901042,633.182292 C337.835069,633.273004 337.752605,633.326606 337.653646,633.343099 L335.365234,633.689453 C335.20855,634.134768 335.047744,634.509981 334.882812,634.815104 C335.171442,635.227433 335.612627,635.796437 336.20638,636.522135 C336.288846,636.621094 336.330078,636.724175 336.330078,636.83138 C336.330078,636.938586 336.292969,637.03342 336.21875,637.115885 C335.996093,637.421008 335.587894,637.866317 334.994141,638.451823 C334.400388,639.037329 334.012805,639.330078 333.83138,639.330078 C333.732421,639.330078 333.625218,639.292969 333.509766,639.21875 L331.802734,637.882812 C331.439885,638.072484 331.064672,638.229166 330.677083,638.352865 C330.545138,639.474398 330.425565,640.241317 330.318359,640.653646 C330.260633,640.88455 330.112197,641 329.873047,641 L327.126953,641 C327.011501,641 326.910482,640.964953 326.823893,640.894857 C326.737304,640.824761 326.689887,640.736112 326.681641,640.628906 L326.335286,638.352865 C325.931205,638.220919 325.560115,638.06836 325.222005,637.895182 L323.477865,639.21875 C323.395399,639.292969 323.292318,639.330078 323.16862,639.330078 C323.053168,639.330078 322.950087,639.284723 322.859375,639.19401 C321.820307,638.253902 321.139976,637.5612 320.818359,637.115885 C320.760633,637.03342 320.731771,636.938586 320.731771,636.83138 C320.731771,636.732421 320.764757,636.637587 320.830729,636.546875 C320.954428,636.373697 321.164712,636.099503 321.461589,635.724284 C321.758465,635.349065 321.981119,635.058378 322.129557,634.852214 C321.9069,634.439885 321.737848,634.031686 321.622396,633.627604 L319.358724,633.29362 C319.251519,633.277127 319.164931,633.225586 319.098958,633.138997 C319.032986,633.052408 319,632.955513 319,632.848307 L319,630.102214 C319,630.003255 319.032986,629.908421 319.098958,629.817708 C319.164931,629.726996 319.243272,629.673394 319.333984,629.656901 L321.634766,629.310547 C321.750218,628.931205 321.911023,628.551868 322.117188,628.172526 C321.787325,627.702472 321.34614,627.133467 320.79362,626.465495 C320.711154,626.366536 320.669922,626.267579 320.669922,626.16862 C320.669922,626.086154 320.707031,625.99132 320.78125,625.884115 C320.995661,625.587238 321.401798,625.143992 321.999674,624.554362 C322.597551,623.964732 322.987195,623.669922 323.16862,623.669922 C323.275825,623.669922 323.383029,623.711154 323.490234,623.79362 L325.197266,625.117188 C325.560115,624.927516 325.935328,624.770834 326.322917,624.647135 C326.454862,623.525602 326.574435,622.758683 326.681641,622.346354 C326.739367,622.11545 326.887803,622 327.126953,622 L329.873047,622 C329.988499,622 330.089518,622.035047 330.176107,622.105143 C330.262696,622.175239 330.310113,622.263888 330.318359,622.371094 L330.664714,624.647135 C331.068795,624.779081 331.439885,624.93164 331.777995,625.104818 L333.534505,623.78125 C333.608724,623.707031 333.707682,623.669922 333.83138,623.669922 C333.938586,623.669922 334.041666,623.711154 334.140625,623.79362 C335.204432,624.774962 335.884764,625.475909 336.181641,625.896484 C336.239367,625.962457 336.268229,626.053168 336.268229,626.16862 C336.268229,626.267579 336.235243,626.362413 336.169271,626.453125 C336.045572,626.626303 335.835288,626.900497 335.538411,627.275716 C335.241535,627.650935 335.018881,627.941622 334.870443,628.147786 C335.084854,628.560115 335.253906,628.964191 335.377604,629.360026 L337.641276,629.70638 C337.748481,629.722873 337.835069,629.774414 337.901042,629.861003 C337.967014,629.947592 338,630.044487 338,630.151693 Z" id=""></path>
        </g>
    </g>
</svg>