<?xml version="1.0" encoding="UTF-8" standalone="no"?>
<svg width="12px" height="10px" viewBox="0 0 12 10" version="1.1" xmlns="http://www.w3.org/2000/svg" xmlns:xlink="http://www.w3.org/1999/xlink">
    <!-- Generator: Sketch 43.2 (39069) - http://www.bohemiancoding.com/sketch -->
    <title>Sort</title>
    <desc>Created with Sketch.</desc>
    <defs></defs>
    <g id="Page-1" stroke="none" stroke-width="1" fill="none" fill-rule="evenodd">
        <g id="Create-Process---Step-2-Alternate-Buttons" transform="translate(-326.000000, -236.000000)" fill="#FFFFFF">
            <path d="M338,244.5 L338,245.5 C338,245.635417 337.950521,245.752604 337.851562,245.851562 C337.752604,245.950521 337.635417,246 337.5,246 L326.5,246 C326.364583,246 326.247396,245.950521 326.148438,245.851562 C326.049479,245.752604 326,245.635417 326,245.5 L326,244.5 C326,244.364583 326.049479,244.247396 326.148438,244.148438 C326.247396,244.049479 326.364583,244 326.5,244 L337.5,244 C337.635417,244 337.752604,244.049479 337.851562,244.148438 C337.950521,244.247396 338,244.364583 338,244.5 Z M338,240.5 L338,241.5 C338,241.635417 337.950521,241.752604 337.851562,241.851562 C337.752604,241.950521 337.635417,242 337.5,242 L326.5,242 C326.364583,242 326.247396,241.950521 326.148438,241.851562 C326.049479,241.752604 326,241.635417 326,241.5 L326,240.5 C326,240.364583 326.049479,240.247396 326.148438,240.148438 C326.247396,240.049479 326.364583,240 326.5,240 L337.5,240 C337.635417,240 337.752604,240.049479 337.851562,240.148438 C337.950521,240.247396 338,240.364583 338,240.5 Z M338,236.5 L338,237.5 C338,237.635417 337.950521,237.752604 337.851562,237.851562 C337.752604,237.950521 337.635417,238 337.5,238 L326.5,238 C326.364583,238 326.247396,237.950521 326.148438,237.851562 C326.049479,237.752604 326,237.635417 326,237.5 L326,236.5 C326,236.364583 326.049479,236.247396 326.148438,236.148438 C326.247396,236.049479 326.364583,236 326.5,236 L337.5,236 C337.635417,236 337.752604,236.049479 337.851562,236.148438 C337.950521,236.247396 338,236.364583 338,236.5 Z" id="Sort"></path>
        </g>
    </g>
</svg>